<svg height="100%" width="100%" id="bg-svg" viewBox="0 0 1440 600" xmlns="http://www.w3.org/2000/svg" class="transition duration-300 ease-in-out delay-150"><path d="M 0,600 C 0,600 0,200 0,200 C 105.55023923444975,217.0909090909091 211.1004784688995,234.1818181818182 306,221 C 400.8995215311005,207.8181818181818 485.1483253588517,164.36363636363637 588,175 C 690.8516746411483,185.63636363636363 812.3062200956938,250.36363636363637 904,262 C 995.6937799043062,273.6363636363636 1057.6267942583734,232.1818181818182 1142,213 C 1226.3732057416266,193.8181818181818 1333.1866028708132,196.9090909090909 1440,200 C 1440,200 1440,600 1440,600 Z" stroke="none" stroke-width="0" fill="#db709388" class="transition-all duration-300 ease-in-out delay-150"></path><path d="M 0,600 C 0,600 0,400 0,400 C 103.82775119617227,356.2105263157895 207.65550239234454,312.4210526315789 304,330 C 400.34449760765546,347.5789473684211 489.2057416267942,426.5263157894737 571,435 C 652.7942583732058,443.4736842105263 727.5215311004786,381.4736842105263 829,376 C 930.4784688995214,370.5263157894737 1058.7081339712918,421.57894736842104 1165,435 C 1271.2918660287082,448.42105263157896 1355.6459330143541,424.2105263157895 1440,400 C 1440,400 1440,600 1440,600 Z" stroke="none" stroke-width="0" fill="#db7093ff" class="transition-all duration-300 ease-in-out delay-150"></path></svg>